<?xml version="1.0" encoding="utf-8"?>
<!-- Generator: Adobe Illustrator 23.0.3, SVG Export Plug-In . SVG Version: 6.00 Build 0)  -->
<svg version="1.1" id="Layer_1" xmlns="http://www.w3.org/2000/svg" xmlns:xlink="http://www.w3.org/1999/xlink" x="0px" y="0px"
	 viewBox="0 0 512 512" style="enable-background:new 0 0 512 512;" xml:space="preserve">
<path d="M244.8,457.8c-6.5,0-12.7-2.3-17.5-6.6c-18.3-16-36-31.1-51.6-44.4l-0.1-0.1C129.9,367.8,90.4,334.2,63,301
	c-30.7-37-45-72.1-45-110.5c0-37.3,12.8-71.6,36-96.8c23.5-25.5,55.7-39.5,90.7-39.5c26.2,0,50.2,8.3,71.3,24.6
	c10.7,8.2,20.3,18.3,28.8,30.1c8.5-11.8,18.2-21.8,28.8-30.1c21.1-16.3,45.1-24.6,71.3-24.6c35,0,67.2,14,90.7,39.5
	c23.2,25.2,36,59.5,36,96.8c0,38.4-14.3,73.5-45,110.5c-27.5,33.1-66.9,66.8-112.6,105.7c-15.6,13.3-33.3,28.4-51.7,44.4
	C257.5,455.4,251.2,457.8,244.8,457.8z M154.7,98.3c-24.8,0-47.5,9.9-64.1,27.8c-16.8,18.2-26.1,43.4-26.1,70.9
	c0,29,10.8,55,35,84.2c23.4,28.2,58.2,57.9,98.4,92.2l0.1,0.1c14.1,12,30,25.6,46.7,40.1c16.7-14.6,32.7-28.2,46.8-40.2
	c40.3-34.3,75.1-64,98.4-92.2c24.2-29.2,35-55.2,35-84.2c0-27.5-9.3-52.7-26.1-70.9c-16.5-18-39.3-27.8-64.1-27.8
	c-18.1,0-34.8,5.8-49.5,17.1c-13.1,10.1-22.2,23-27.6,31.9c-2.8,4.6-7.6,7.4-13,7.4c-5.4,0-10.2-2.8-13-7.4
	c-5.4-9-14.5-21.8-27.6-31.9C189.5,104.1,172.9,98.3,154.7,98.3z"/>
</svg>
