<svg id="4298a90d-081f-404a-bcd0-83c3a4fdfe39" data-name="Layer 1" xmlns="http://www.w3.org/2000/svg" viewBox="0 0 510.95 511"><title>home_fill</title><path d="M498.22,221.26l0,0L289.74,12.78a47,47,0,0,0-66.53,0L14.87,221.12l-.21.21A47,47,0,0,0,46,301.48c.48,0,1,.07,1.45.07h8.3v153.4A55.12,55.12,0,0,0,110.78,510h81.55a15,15,0,0,0,15-15V374.77a25.15,25.15,0,0,1,25.12-25.12h48.1a25.15,25.15,0,0,1,25.12,25.12V495a15,15,0,0,0,15,15h81.55a55.12,55.12,0,0,0,55.06-55.06V301.55h7.7a47.05,47.05,0,0,0,33.29-80.29Z" transform="translate(-1 1)"/></svg>